<svg height="511pt" viewBox="-25 1 511 511.999" width="511pt" xmlns="http://www.w3.org/2000/svg"><path d="m448.574219 363.902344c-9.230469-5.414063-21.90625-6.238282-33.085938-2.144532-7.976562 2.917969-14.28125 7.972657-18.277343 14.535157-4.28125-4.304688-12.910157-14.574219-28.507813-38.742188l-.503906-.78125c-3.335938-5.121093-3.023438-12.636719-2.585938-23.042969.164063-3.945312.347657-8.421874.347657-13.277343v-8.613281c0-29.972657-4.253907-50.238282-13.394532-63.78125-9.453125-14.007813-24.253906-20.984376-45.171875-21.335938-.519531-.117188-1.058593-.179688-1.601562-.179688h-30.65625v-16.976562c5.699219-3.347656 11.175781-7.203125 16.246093-11.519531 3.847657-3.277344 7.367188-6.726563 10.542969-10.316407 13.066407 14.886719 30.328125 20.429688 47.164063 20.429688 11.210937 0 22.234375-2.457031 31.691406-6.238281 3.171875-1.273438 12.820312-5.148438 13.476562-13.945313.667969-8.878906-8.554687-14.296875-11.585937-16.078125-18.082031-10.625-18.320313-37.25-18.53125-60.738281-.121094-13.828125-.238281-26.894531-3.972656-36.394531-10.859375-27.699219-40.019531-23.699219-54.03125-21.777344-1.347657.1875-2.652344.363281-3.828125.503906-1.558594-1.8125-3.1875-3.59375-4.914063-5.3125-17.734375-17.667969-42.199219-28.175781-65.554687-28.175781-.175782 0-.359375 0-.535156 0-22.40625.152344-45.335938 9.402344-62.902344 25.386719-18.476563 16.808593-28.695313 38.539062-28.769532 61.183593l-.113281 33.582032c0 23.339844 14.234375 41.710937 26.175781 53.019531 6.414063 6.070313 13.667969 11.523437 21.164063 16.089844v17.277343h-30.652344c-.003906 0-.003906 0-.007812 0-53.054688.042969-60.183594 43.070313-60.164063 85.152344v8.617188c0 4.851562.1875 9.328125.351563 13.28125.433593 10.410156.746093 17.933594-2.582031 23.027344-.007813.011718-.015626.023437-.023438.035156l-.3125.492187c-14.539062 22.589844-23.746094 34.089844-28.660156 39.042969-3.996094-6.585938-10.316406-11.65625-18.316406-14.578125-11.179688-4.082031-23.859376-3.242187-33.070313 2.183594-11.144531 6.542969-15.589844 20.902343-11.328125 36.578125 3.59375 13.210937 14.082031 27.429687 28.617188 27.429687h31.617187c-7.144531 16.613281-7.214844 35.945313.527344 51.796875 5.910156 12.101563 21.691406 32.398438 60.976562 32.398438h69.941407c.011718 0 .019531.003906.027343.003906.007813 0 .011719-.003906.019531-.003906h72.320313c7.582031-6.664063 2.960937-15.113282-3.632813-15.113282h-58.984374c7.46875-25.699218 21.429687-43.949218 42.53125-55.578124 0 0 .003906 0 .007812-.003907.007812-.003906.011719-.007812.019531-.011719.035157-.019531.0625-.042968.097657-.058593.023437-.015625.046874-.023438.070312-.035157 29.242188-17.066406 67.882812-36.242187 108.296875-33.785156 7.714844 2.875 20.570313 9.648438 26.09375 17.351563.273437.378906.585937.71875.917969 1.039062 7.507812 14.414063 6.867187 35.941407-1.75 51.035157-5.21875 9.144531-15.683594 20.046874-35.886719 20.046874h-51.652344c-7.585937 6.667969-2.964843 15.117188 3.632813 15.117188h48.019531c21.421875 0 38.828125-9.828125 49.015625-27.671875 9.457031-16.570313 11.425781-38.5625 5.792969-56.414063h32.558593c14.527344 0 25.015626-14.199218 28.609376-27.394531 4.269531-15.679687-.167969-30.046875-11.324219-36.617187zm-206.046875 61.988281c-32.226563-19.085937-72.886719-31.996094-105.894532-34.707031l11.734376-6.574219 66.9375.03125h3.636718c7.585938-6.660156 2.96875-15.113281-3.628906-15.117187l-61.359375-.023438v-62.132812c12.121094 8.570312 30.878906 13.375 49.589844 13.375 8.839843 0 17.667969-1.074219 25.773437-3.324219.628906-.175781 1.148438-.328125 1.585938-.457031.042968-.015626.085937-.027344.128906-.039063.492188.144531 1.09375.316406 1.851562.519531 24.496094 6.578125 57.335938 1.996094 75.164063-10.144531v62.199219h-61.730469c-7.582031 6.664062-2.960937 15.113281 3.632813 15.113281h63.476562l15.621094 8.753906c-33.171875 4.417969-63.839844 19.546875-86.519531 32.527344zm69.675781-378.445313c15.425781-1.847656 28.34375-1.328124 33.898437 12.839844 2.710938 6.90625 2.816407 18.613282 2.929688 31.007813.230469 26.140625.523438 58.667969 25.984375 73.636719 1.183594.691406 2.0625 1.292968 2.707031 1.785156-.640625.34375-1.480468.738281-2.5625 1.175781-7.160156 2.863281-42.625 15.128906-63.929687-12.628906 7.484375-12.097657 11.445312-25.269531 11.445312-38.648438l.101563-26.292969c.015625-.265624.015625-.535156.003906-.804687l.007812-2.917969c.046876-13.609375-3.640624-26.988281-10.585937-39.152344zm-80.796875-32.328124c.148438-.003907.292969-.003907.441406-.003907 19.433594 0 39.921875 8.867188 54.878906 23.769531 12.695313 12.644532 20.019532 28.28125 20.867188 44.34375-46.515625 5.691407-68.207031-.378906-93.675781-25.167968-14.679688-14.292969-25.84375-3.539063-32.511719 2.882812-6.703125 6.457032-12.621094 12.144532-24.152344 8.953125 8.886719-30.0625 40.273438-54.550781 74.152344-54.777343zm-55.320312 147.078124c-9.785157-9.265624-21.453126-24.078124-21.453126-42.015624l.113282-33.554688c.003906-.59375.039062-1.179688.0625-1.769531 18.886718 4.472656 30.03125-6.242188 37.078125-13.027344 2.617187-2.515625 5.316406-5.117187 7.011719-5.628906 1.222656-.359375 3.734374 1.964843 4.476562 2.691406 22.605469 22 43.746094 31.351563 76.488281 31.351563 8.414063 0 17.605469-.625 27.769531-1.804688l-.070312 18.144531c0 40.730469-46.273438 70.328125-76.878906 72.03125-.382813.023438-.777344.035157-1.183594.035157-12.480469-.003907-35.851562-9.824219-53.414062-26.453126zm83.9375 34.8125v21.535157c0 7.054687-3.410157 13.675781-9.15625 17.769531-23.460938 16.707031-48.894532.164062-48.894532-22.210938v-16.996093c9.839844 4.238281 19.433594 6.65625 27.480469 6.65625.699219 0 1.390625-.019531 2.066406-.054688 9.214844-.515625 18.957031-2.863281 28.503907-6.699219zm-111.371094 60.488282c.078125-2.59375.304687-5.308594.667968-8.058594 1.53125-11.253906 5.253907-21.167969 10.355469-27.78125h27.832031c3.59375 20.753906 21.722657 36.585938 43.476563 36.585938 21.769531 0 39.910156-15.832032 43.507813-36.585938h27.832031c7.515625 9.699219 10.636719 24.554688 11.023437 35.851562.070313 7.34375-.570312 18.523438-4.351562 26.835938-.152344.269531-.285156.550781-.402344.839844-1.652344 3.351562-3.855469 6.175781-6.785156 7.996094-.234375.144531-.464844.304687-.683594.476562-11.878906 9.324219-41.222656 15.390625-64.324219 9.1875-.667969-.179688-1.191406-.332031-1.621093-.453125-3.480469-1.007813-4.917969-.996094-8.539063.070313-.390625.113281-.855469.25-1.390625.398437-21.746094 6.039063-51.570312 1.714844-64.675781-9.457031-.003907 0-.003907-.003906-.007813-.003906-1.683594-.929688-3.296875-2.441407-4.769531-4.449219-4.96875-6.839844-7.304687-17.128907-7.144531-31.453125zm-131.972656 138.910156c-1.839844-6.761719-1.789063-15.945312 4.402343-19.585938 2.964844-1.746093 6.839844-2.636718 10.878907-2.636718 3.132812 0 6.367187.535156 9.347656 1.625 3.457031 1.261718 9.628906 4.425781 12.09375 11.425781 1.324218 3.78125 4.34375 6.300781 8.074218 6.742187 5.878907.699219 12.167969-2.808593 26.960938-22.734374 4.773438-6.433594 10.085938-14.144532 15.808594-22.933594h16.558594c7.585937-6.664063 2.960937-15.117188-3.632813-15.117188h-6.21875c1.109375-6.183594.839844-12.90625.535156-20.230468-.164062-3.988282-.339843-8.113282-.339843-12.652344v-8.617188c-.011719-26.433594 3.519531-44.527344 10.800781-55.308594 4.546875-6.734374 10.714843-11 19.246093-13.117187-3.292968 7.039063-5.640624 15.234375-6.851562 24.15625-.441406 3.308594-.710938 6.574219-.800781 9.710937 0 .039063-.003907.082032-.003907.125-.101562 8.6875.421876 20.445313 4.875 31.226563.128907.339844.269532.683594.425782 1.042969v83.097656l-36.46875 20.429688c-7.996094 2.929687-22.105469 9.90625-30.761719 19.632812h-40.898437c-5.382813 0-11.546876-7.152344-14.03125-16.28125zm59.757812 76.558594c-7.1875-14.714844-5.128906-34.3125 4.910156-48.304688.003906-.003906.007813-.007812.011719-.011718 5.617187-7.832032 18.542969-14.597657 26.199219-17.390626 26.34375-5.453124 71.292968 4.09375 109.085937 22.015626-24.304687 4.253906-40.855469 14.050781-51.207031 22.613281-15.3125 12.65625-25.207031 29.59375-25.207031 43.148437 0 .636719.03125 1.25.074219 1.847656h-16.472657c-29.519531 0-42.066406-13.003906-47.394531-23.917968zm111.394531 23.917968h-32.308593c-.503907-1.800781-.3125-7.289062 4.175781-15.355468 8.34375-15 27.117187-30.800782 56.734375-36.792969-13.5 13.429687-23.074219 30.875-28.601563 52.148437zm257.480469-100.339843c-2.480469 9.117187-8.644531 16.257812-14.027344 16.257812h-40.898437c-8.40625-9.417969-22.054688-16.316406-30.152344-19.398437-.363281-.210938-.746094-.390625-1.148437-.539063l-35.925782-20.125v-83.152343c4.3125-10.121094 5.402344-22.175782 5.300782-32.316407-.003907-.058593-.003907-.113281-.003907-.171875-.40625-12.296875-3.117187-24.003906-7.605469-33.660156 8.496094 2.121094 14.65625 6.363281 19.1875 13.074219 7.273438 10.777343 10.808594 28.875 10.808594 55.324219v8.617187c0 4.539063-.171875 8.660156-.339844 12.644531-.304687 7.328125-.574218 14.050782.539063 20.238282h-9.851563c-7.582031 6.664062-2.964843 15.113281 3.632813 15.113281h12.925781c3.367188 5.179687 9.589844 14.585937 16.105469 23.335937 14.578125 19.582032 20.8125 23.011719 26.652344 22.332032 3.726562-.4375 6.746093-2.953126 8.082031-6.730469 2.464844-7.003907 8.628906-10.167969 12.085938-11.433594 6.835937-2.503906 14.976562-2.105469 20.238281.980469 6.195312 3.648437 6.242187 12.84375 4.394531 19.609375zm0 0"/><path d="m207.613281 116.652344c-2.480469 2.234375-13.613281 2.242187-16.113281.015625-4.453125-4.527344-13.21875-2.261719-13.351562 6.941406 4.316406 8.976563 16.800781 9.839844 21.332031 9.847656h.050781c4.597656 0 17.074219-.863281 21.425781-9.847656-.128906-9.1875-8.882812-11.492187-13.34375-6.957031zm0 0"/><path d="m261.183594 133.457031h.101562c4.640625 0 17.054688-.871093 21.445313-9.828125-.117188-9.191406-8.863281-11.507812-13.335938-6.988281-2.476562 2.246094-13.621093 2.265625-16.125.027344-4.449219-4.527344-13.226562-2.265625-13.351562 6.941406 4.304687 8.957031 16.75 9.835937 21.265625 9.847656zm0 0"/></svg>